<svg width="45" height="44" viewBox="0 0 45 44" fill="none" xmlns="http://www.w3.org/2000/svg">
<g id="Mask group">
<mask id="mask0_1_588" style="mask-type:alpha" maskUnits="userSpaceOnUse" x="0" y="0" width="45" height="44">
<g id="Group">
<path id="Vector_13" d="M36.1106 0H7.96557C3.56631 0 0 3.58172 0 8V36C0 40.4183 3.56631 44 7.96557 44H36.1106C40.5099 44 44.0762 40.4183 44.0762 36V8C44.0762 3.58172 40.5099 0 36.1106 0Z" fill="#009B3A"/>
</g>
</mask>
<g mask="url(#mask0_1_588)">
<g id="Group_2">
<path id="Vector_14" d="M35.8451 0H7.96557C3.56631 0 0 3.58172 0 8V36C0 40.4183 3.56631 44 7.96557 44H35.8451C40.2443 44 43.8106 40.4183 43.8106 36V8C43.8106 3.58172 40.2443 0 35.8451 0Z" fill="#0075FF"/>
<path id="Vector_15" d="M10.2225 21.6C16.4548 21.6 21.507 16.5259 21.507 10.2667C21.507 4.00744 16.4548 -1.06667 10.2225 -1.06667C3.9902 -1.06667 -1.06207 4.00744 -1.06207 10.2667C-1.06207 16.5259 3.9902 21.6 10.2225 21.6Z" fill="#FEDF00"/>
<path id="Vector_16" d="M5.97418 12.5333C9.27363 12.5333 11.9484 9.84704 11.9484 6.53333C11.9484 3.21962 9.27363 0.533333 5.97418 0.533333C2.67473 0.533333 0 3.21962 0 6.53333C0 9.84704 2.67473 12.5333 5.97418 12.5333Z" fill="#002776"/>
</g>
</g>
</g>
</svg> 