<svg width="139" height="44" viewBox="0 0 139 44" fill="none" xmlns="http://www.w3.org/2000/svg">
<g id="Logo" opacity="0.6">
<path id="Vector" d="M50.9797 12.2212C50.9797 11.0088 51.2056 9.94446 51.6575 9.02811C52.1235 8.11177 52.752 7.40689 53.543 6.91347C54.334 6.42006 55.2166 6.17334 56.191 6.17334C57.0242 6.17334 57.7517 6.34251 58.3731 6.68086C59.0087 7.01921 59.4959 7.46329 59.8347 8.0131V6.34251H63.4575V18.1422H59.8347V16.4717C59.4819 17.0215 58.9875 17.4656 58.3518 17.8039C57.7305 18.1422 57.0032 18.3114 56.1698 18.3114C55.2097 18.3114 54.334 18.0647 53.543 17.5713C52.752 17.0638 52.1235 16.3518 51.6575 15.4355C51.2056 14.5051 50.9797 13.4336 50.9797 12.2212ZM59.8347 12.2424C59.8347 11.3401 59.5806 10.6282 59.0722 10.1066C58.5778 9.58497 57.9705 9.32417 57.2504 9.32417C56.5301 9.32417 55.9157 9.58497 55.4072 10.1066C54.9131 10.6141 54.6659 11.319 54.6659 12.2212C54.6659 13.1235 54.9131 13.8425 55.4072 14.3782C55.9157 14.8998 56.5301 15.1606 57.2504 15.1606C57.9705 15.1606 58.5778 14.8998 59.0722 14.3782C59.5806 13.8566 59.8347 13.1446 59.8347 12.2424Z" fill="#FDFDFD"/>
<path id="Vector_2" d="M69.7006 8.0131C70.0537 7.46329 70.541 7.01921 71.1626 6.68086C71.7839 6.34251 72.5111 6.17334 73.3443 6.17334C74.319 6.17334 75.2016 6.42006 75.9926 6.91347C76.7833 7.40689 77.4049 8.11177 77.8568 9.02811C78.3228 9.94446 78.5559 11.0088 78.5559 12.2212C78.5559 13.4336 78.3228 14.5051 77.8568 15.4355C77.4049 16.3518 76.7833 17.0638 75.9926 17.5713C75.2016 18.0647 74.319 18.3114 73.3443 18.3114C72.5252 18.3114 71.7979 18.1422 71.1626 17.8039C70.541 17.4656 70.0537 17.0285 69.7006 16.4928L69.6796 22.9333H66.0781V6.34251H69.7006V8.0131ZM74.8697 12.2212C74.8697 11.319 74.6156 10.6141 74.1072 10.1066C73.6128 9.58497 72.9984 9.32417 72.2639 9.32417C71.5438 9.32417 70.9294 9.58497 70.421 10.1066C69.9266 10.6282 69.6796 11.3401 69.6796 12.2424C69.6796 13.1446 69.9266 13.8566 70.421 14.3782C70.9294 14.8998 71.5438 15.1606 72.2639 15.1606C72.9843 15.1606 73.5987 14.8998 74.1072 14.3782C74.6156 13.8425 74.8697 13.1235 74.8697 12.2212Z" fill="#FDFDFD"/>
<path id="Vector_3" d="M85.8372 18.3114C84.679 18.3114 83.634 18.0647 82.702 17.5713C81.7838 17.0779 81.0566 16.373 80.52 15.4566C79.9974 14.5403 79.7361 13.4689 79.7361 12.2424C79.7361 11.03 80.0043 9.96561 80.5412 9.04926C81.0778 8.11883 81.8122 7.40689 82.7442 6.91347C83.6764 6.42006 84.7215 6.17334 85.8795 6.17334C87.0377 6.17334 88.0827 6.42006 89.015 6.91347C89.9469 7.40689 90.6814 8.11883 91.218 9.04926C91.7549 9.96561 92.023 11.03 92.023 12.2424C92.023 13.4548 91.7477 14.5262 91.197 15.4566C90.6601 16.373 89.9188 17.0779 88.9725 17.5713C88.0405 18.0647 86.9954 18.3114 85.8372 18.3114ZM85.8372 15.1817C86.5292 15.1817 87.1155 14.928 87.5955 14.4205C88.0899 13.913 88.3371 13.1869 88.3371 12.2424C88.3371 11.2978 88.0968 10.5718 87.6167 10.0643C87.1508 9.55678 86.5717 9.30302 85.8795 9.30302C85.1734 9.30302 84.5874 9.55678 84.1212 10.0643C83.6552 10.5577 83.4221 11.2837 83.4221 12.2424C83.4221 13.1869 83.648 13.913 84.1 14.4205C84.5662 14.928 85.1453 15.1817 85.8372 15.1817Z" fill="#FDFDFD"/>
<path id="Vector_4" d="M98.754 18.3114C97.723 18.3114 96.8048 18.1352 96 17.7828C95.195 17.4303 94.5593 16.951 94.0933 16.3448C93.6273 15.7245 93.3661 15.0337 93.3095 14.2725H96.8898C96.932 14.6813 97.1226 15.0126 97.4617 15.2663C97.8005 15.5201 98.2171 15.647 98.7115 15.647C99.1634 15.647 99.5094 15.5624 99.7497 15.3932C100.004 15.21 100.131 14.9773 100.131 14.6954C100.131 14.357 99.9544 14.1103 99.6012 13.9553C99.2481 13.7861 98.6762 13.6028 97.8852 13.4054C97.0379 13.2081 96.3319 13.0037 95.7669 12.7922C95.2019 12.5666 94.7146 12.2212 94.3052 11.756C93.8955 11.2767 93.6908 10.6353 93.6908 9.83169C93.6908 9.15499 93.8743 8.54174 94.2415 7.99195C94.6228 7.42803 95.1737 6.98395 95.8941 6.65971C96.6285 6.33547 97.497 6.17334 98.4996 6.17334C99.9825 6.17334 101.148 6.53987 101.995 7.27297C102.857 8.00603 103.351 8.97878 103.478 10.1912H100.131C100.074 9.78235 99.8907 9.45809 99.58 9.21843C99.2834 8.97878 98.8881 8.85894 98.3937 8.85894C97.9702 8.85894 97.6452 8.94353 97.4192 9.1127C97.1933 9.26779 97.0804 9.4863 97.0804 9.76825C97.0804 10.1066 97.2567 10.3604 97.6099 10.5295C97.9771 10.6987 98.5421 10.8679 99.3047 11.037C100.18 11.2626 100.894 11.4882 101.444 11.7137C101.995 11.9252 102.475 12.2776 102.885 12.771C103.309 13.2504 103.527 13.8989 103.542 14.7165C103.542 15.4073 103.344 16.0276 102.948 16.5774C102.567 17.1131 102.009 17.5361 101.275 17.8462C100.554 18.1564 99.7144 18.3114 98.754 18.3114Z" fill="#FDFDFD"/>
<path id="Vector_5" d="M112.346 15.076V18.1422H110.503C109.19 18.1422 108.166 17.825 107.431 17.1906C106.697 16.5421 106.33 15.4919 106.33 14.0398V9.34527H104.889V6.34247H106.33V3.46655H109.952V6.34247H112.325V9.34527H109.952V14.0821C109.952 14.4345 110.037 14.6883 110.207 14.8434C110.376 14.9984 110.659 15.076 111.054 15.076H112.346Z" fill="#FDFDFD"/>
<path id="Vector_6" d="M113.644 12.2212C113.644 11.0088 113.87 9.94446 114.322 9.02811C114.788 8.11177 115.416 7.40689 116.207 6.91347C116.998 6.42006 117.881 6.17334 118.855 6.17334C119.689 6.17334 120.416 6.34251 121.037 6.68086C121.673 7.01921 122.16 7.46329 122.499 8.0131V6.34251H126.122V18.1422H122.499V16.4717C122.146 17.0215 121.652 17.4656 121.016 17.8039C120.395 18.1422 119.667 18.3114 118.834 18.3114C117.874 18.3114 116.998 18.0647 116.207 17.5713C115.416 17.0638 114.788 16.3518 114.322 15.4355C113.87 14.5051 113.644 13.4336 113.644 12.2212ZM122.499 12.2424C122.499 11.3401 122.245 10.6282 121.736 10.1066C121.242 9.58497 120.635 9.32417 119.914 9.32417C119.194 9.32417 118.58 9.58497 118.072 10.1066C117.577 10.6141 117.33 11.319 117.33 12.2212C117.33 13.1235 117.577 13.8425 118.072 14.3782C118.58 14.8998 119.194 15.1606 119.914 15.1606C120.635 15.1606 121.242 14.8998 121.736 14.3782C122.245 13.8566 122.499 13.1446 122.499 12.2424Z" fill="#FDFDFD"/>
<path id="Vector_7" d="M54.6008 30.0991C54.9396 29.542 55.4266 29.0921 56.062 28.7495C56.6971 28.4065 57.4241 28.2351 58.2429 28.2351C59.2171 28.2351 60.0995 28.4852 60.8899 28.9849C61.6806 29.4849 62.3017 30.1991 62.7533 31.1276C63.2193 32.0561 63.4522 33.1345 63.4522 34.3628C63.4522 35.5913 63.2193 36.6769 62.7533 37.6196C62.3017 38.5481 61.6806 39.2695 60.8899 39.7836C60.0995 40.2836 59.2171 40.5335 58.2429 40.5335C57.41 40.5335 56.683 40.3692 56.062 40.0407C55.4407 39.698 54.9537 39.2479 54.6008 38.6908V40.362H50.9797V24.5071H54.6008V30.0991ZM59.7676 34.3628C59.7676 33.4487 59.5135 32.7345 59.0053 32.2204C58.5111 31.6919 57.897 31.4276 57.1631 31.4276C56.443 31.4276 55.8288 31.6919 55.3206 32.2204C54.8265 32.7489 54.5796 33.4703 54.5796 34.3844C54.5796 35.2985 54.8265 36.0199 55.3206 36.5484C55.8288 37.0767 56.443 37.3409 57.1631 37.3409C57.8829 37.3409 58.4971 37.0767 59.0053 36.5484C59.5135 36.0055 59.7676 35.2769 59.7676 34.3628Z" fill="#FDFDFD"/>
<path id="Vector_8" d="M68.9728 30.3989C69.3963 29.7418 69.9258 29.2277 70.5612 28.8562C71.1963 28.4706 71.9023 28.2778 72.6787 28.2778V32.156H71.6835C70.78 32.156 70.1024 32.356 69.6507 32.7557C69.1988 33.1416 68.9728 33.8272 68.9728 34.8128V40.3618H65.352V28.4064H68.9728V30.3989Z" fill="#FDFDFD"/>
<path id="Vector_9" d="M73.6895 34.3626C73.6895 33.1343 73.9155 32.0559 74.3671 31.1274C74.8331 30.1989 75.4613 29.4847 76.2518 28.9847C77.0422 28.485 77.9245 28.2349 78.8987 28.2349C79.7317 28.2349 80.4587 28.4063 81.08 28.7493C81.7151 29.0919 82.2021 29.5418 82.5409 30.0989V28.4063H86.162V40.3618H82.5409V38.6693C82.188 39.2263 81.6939 39.6762 81.0587 40.0191C80.4374 40.3618 79.7104 40.5333 78.8775 40.5333C77.9176 40.5333 77.0422 40.2834 76.2518 39.7834C75.4613 39.2693 74.8331 38.5479 74.3671 37.6194C73.9155 36.6767 73.6895 35.5911 73.6895 34.3626ZM82.5409 34.3842C82.5409 33.4701 82.2868 32.7487 81.7786 32.2202C81.2847 31.6917 80.6774 31.4274 79.9576 31.4274C79.2375 31.4274 78.6234 31.6917 78.1152 32.2202C77.6211 32.7343 77.3741 33.4485 77.3741 34.3626C77.3741 35.2767 77.6211 36.0053 78.1152 36.5482C78.6234 37.0765 79.2375 37.3407 79.9576 37.3407C80.6774 37.3407 81.2847 37.0765 81.7786 36.5482C82.2868 36.0197 82.5409 35.2983 82.5409 34.3842Z" fill="#FDFDFD"/>
<path id="Vector_10" d="M93.5886 40.5333C92.5581 40.5333 91.6405 40.3546 90.8357 39.9975C90.0312 39.6405 89.3958 39.1549 88.9301 38.5407C88.4641 37.9122 88.2028 37.2122 88.1465 36.441H91.7252C91.7674 36.8551 91.958 37.1909 92.2968 37.4479C92.6356 37.705 93.0522 37.8335 93.5464 37.8335C93.998 37.8335 94.344 37.7479 94.584 37.5765C94.8381 37.3909 94.965 37.1551 94.965 36.8695C94.965 36.5266 94.7885 36.2767 94.4356 36.1197C94.0827 35.9482 93.5111 35.7626 92.7203 35.5626C91.8733 35.3626 91.1676 35.1554 90.6028 34.9413C90.0381 34.7127 89.5511 34.3626 89.1417 33.8914C88.7323 33.4058 88.5275 32.7557 88.5275 31.9415C88.5275 31.2559 88.7113 30.6346 89.0782 30.0775C89.4592 29.5063 90.0099 29.0562 90.73 28.7277C91.4639 28.3991 92.3322 28.2349 93.3345 28.2349C94.8169 28.2349 95.9815 28.6063 96.8285 29.349C97.6898 30.0919 98.1837 31.0775 98.3109 32.3058H94.965C94.9085 31.8917 94.725 31.5631 94.4146 31.3202C94.118 31.0775 93.7227 30.9559 93.2286 30.9559C92.8051 30.9559 92.4803 31.0418 92.2546 31.213C92.0287 31.3703 91.9158 31.5917 91.9158 31.8773C91.9158 32.2202 92.0921 32.4773 92.4453 32.6487C92.8122 32.8199 93.377 32.9914 94.1393 33.1629C95.0144 33.3914 95.7273 33.6199 96.278 33.8485C96.8285 34.0626 97.3085 34.4199 97.7179 34.9197C98.1414 35.4053 98.3602 36.0623 98.3743 36.8909C98.3743 37.5909 98.1768 38.2194 97.7814 38.7765C97.4004 39.3191 96.8425 39.7477 96.1086 40.0618C95.3885 40.3762 94.5487 40.5333 93.5886 40.5333Z" fill="#FDFDFD"/>
<path id="Vector_11" d="M102.411 27.1637C101.776 27.1637 101.253 26.9781 100.844 26.6066C100.448 26.221 100.251 25.7496 100.251 25.1925C100.251 24.6212 100.448 24.1498 100.844 23.7784C101.253 23.3928 101.776 23.2 102.411 23.2C103.032 23.2 103.54 23.3928 103.936 23.7784C104.345 24.1498 104.549 24.6212 104.549 25.1925C104.549 25.7496 104.345 26.221 103.936 26.6066C103.54 26.9781 103.032 27.1637 102.411 27.1637ZM104.211 28.4064V40.3618H100.59V28.4064H104.211Z" fill="#FDFDFD"/>
<path id="Vector_12" d="M110.456 24.5071V40.362H106.835V24.5071H110.456Z" fill="#FDFDFD"/>
<g id="Mask group">
<mask id="mask0_1_626" style="mask-type:alpha" maskUnits="userSpaceOnUse" x="0" y="0" width="45" height="44">
<g id="Group">
<path id="Vector_13" d="M36.1106 0H7.96557C3.56631 0 0 3.58172 0 8V36C0 40.4183 3.56631 44 7.96557 44H36.1106C40.5099 44 44.0762 40.4183 44.0762 36V8C44.0762 3.58172 40.5099 0 36.1106 0Z" fill="#009B3A"/>
</g>
</mask>
<g mask="url(#mask0_1_626)">
<g id="Group_2">
<path id="Vector_14" d="M35.8451 0H7.96557C3.56631 0 0 3.58172 0 8V36C0 40.4183 3.56631 44 7.96557 44H35.8451C40.2443 44 43.8106 40.4183 43.8106 36V8C43.8106 3.58172 40.2443 0 35.8451 0Z" fill="#FDFDFD"/>
<path id="Vector_15" d="M10.2225 21.6C16.4548 21.6 21.507 16.5259 21.507 10.2667C21.507 4.00746 16.4548 -1.06665 10.2225 -1.06665C3.9902 -1.06665 -1.06207 4.00746 -1.06207 10.2667C-1.06207 16.5259 3.9902 21.6 10.2225 21.6Z" fill="#0D0D0D"/>
<path id="Vector_16" d="M5.97418 12.5334C9.27363 12.5334 11.9484 9.84716 11.9484 6.53345C11.9484 3.21974 9.27363 0.533447 5.97418 0.533447C2.67473 0.533447 0 3.21974 0 6.53345C0 9.84716 2.67473 12.5334 5.97418 12.5334Z" fill="#FDFDFD"/>
</g>
</g>
</g>
</g>
</svg>
