<svg width="139" height="44" viewBox="0 0 139 44" fill="none" xmlns="http://www.w3.org/2000/svg">
<g id="Logo">
<path id="Vector" d="M50.9797 12.2213C50.9797 11.0089 51.2056 9.94454 51.6575 9.0282C52.1235 8.11185 52.752 7.40697 53.543 6.91356C54.334 6.42014 55.2166 6.17342 56.191 6.17342C57.0242 6.17342 57.7517 6.3426 58.3731 6.68094C59.0087 7.01929 59.4959 7.46337 59.8347 8.01318V6.3426H63.4575V18.1423H59.8347V16.4718C59.4819 17.0216 58.9875 17.4657 58.3518 17.804C57.7305 18.1423 57.0032 18.3115 56.1698 18.3115C55.2097 18.3115 54.334 18.0648 53.543 17.5714C52.752 17.0639 52.1235 16.3519 51.6575 15.4356C51.2056 14.5052 50.9797 13.4337 50.9797 12.2213ZM59.8347 12.2425C59.8347 11.3402 59.5806 10.6283 59.0722 10.1067C58.5778 9.58505 57.9705 9.32425 57.2504 9.32425C56.5301 9.32425 55.9157 9.58505 55.4072 10.1067C54.9131 10.6142 54.6659 11.3191 54.6659 12.2213C54.6659 13.1236 54.9131 13.8425 55.4072 14.3783C55.9157 14.8999 56.5301 15.1607 57.2504 15.1607C57.9705 15.1607 58.5778 14.8999 59.0722 14.3783C59.5806 13.8567 59.8347 13.1447 59.8347 12.2425Z" fill="#FDFDFD"/>
<path id="Vector_2" d="M69.7006 8.01318C70.0537 7.46337 70.541 7.01929 71.1626 6.68094C71.7839 6.3426 72.5111 6.17342 73.3443 6.17342C74.319 6.17342 75.2016 6.42014 75.9926 6.91356C76.7833 7.40697 77.4049 8.11185 77.8568 9.0282C78.3228 9.94454 78.5559 11.0089 78.5559 12.2213C78.5559 13.4337 78.3228 14.5052 77.8568 15.4356C77.4049 16.3519 76.7833 17.0639 75.9926 17.5714C75.2016 18.0648 74.319 18.3115 73.3443 18.3115C72.5252 18.3115 71.7979 18.1423 71.1626 17.804C70.541 17.4657 70.0537 17.0286 69.7006 16.4929L69.6796 22.9333H66.0781V6.3426H69.7006V8.01318ZM74.8697 12.2213C74.8697 11.3191 74.6156 10.6142 74.1072 10.1067C73.6128 9.58505 72.9984 9.32425 72.2639 9.32425C71.5438 9.32425 70.9294 9.58505 70.421 10.1067C69.9266 10.6283 69.6796 11.3402 69.6796 12.2425C69.6796 13.1447 69.9266 13.8566 70.421 14.3783C70.9294 14.8999 71.5438 15.1607 72.2639 15.1607C72.9843 15.1607 73.5987 14.8999 74.1072 14.3783C74.6156 13.8425 74.8697 13.1236 74.8697 12.2213Z" fill="#FDFDFD"/>
<path id="Vector_3" d="M85.8372 18.3115C84.679 18.3115 83.634 18.0648 82.702 17.5714C81.7838 17.078 81.0566 16.3731 80.52 15.4567C79.9974 14.5404 79.7361 13.469 79.7361 12.2425C79.7361 11.0301 80.0043 9.96569 80.5412 9.04934C81.0778 8.11892 81.8122 7.40697 82.7442 6.91356C83.6764 6.42014 84.7215 6.17342 85.8795 6.17342C87.0377 6.17342 88.0827 6.42014 89.015 6.91356C89.9469 7.40697 90.6814 8.11892 91.218 9.04934C91.7549 9.96569 92.023 11.0301 92.023 12.2425C92.023 13.4549 91.7477 14.5263 91.197 15.4567C90.6601 16.3731 89.9188 17.078 88.9725 17.5714C88.0405 18.0648 86.9954 18.3115 85.8372 18.3115ZM85.8372 15.1818C86.5292 15.1818 87.1155 14.9281 87.5955 14.4206C88.0899 13.9131 88.3371 13.187 88.3371 12.2425C88.3371 11.2979 88.0968 10.5719 87.6167 10.0644C87.1508 9.55686 86.5717 9.3031 85.8795 9.3031C85.1734 9.3031 84.5874 9.55686 84.1212 10.0644C83.6552 10.5578 83.4221 11.2838 83.4221 12.2425C83.4221 13.187 83.648 13.9131 84.1 14.4206C84.5662 14.9281 85.1453 15.1818 85.8372 15.1818Z" fill="#FDFDFD"/>
<path id="Vector_4" d="M98.754 18.3115C97.723 18.3115 96.8048 18.1353 96 17.7829C95.195 17.4304 94.5593 16.9511 94.0933 16.3449C93.6273 15.7246 93.3661 15.0338 93.3095 14.2725H96.8898C96.932 14.6814 97.1226 15.0127 97.4617 15.2664C97.8005 15.5202 98.2171 15.6471 98.7115 15.6471C99.1634 15.6471 99.5094 15.5625 99.7497 15.3933C100.004 15.21 100.131 14.9774 100.131 14.6955C100.131 14.3571 99.9544 14.1104 99.6012 13.9553C99.2481 13.7862 98.6762 13.6029 97.8852 13.4055C97.0379 13.2082 96.3319 13.0037 95.7669 12.7923C95.2019 12.5667 94.7146 12.2213 94.3052 11.7561C93.8955 11.2768 93.6908 10.6353 93.6908 9.83177C93.6908 9.15508 93.8743 8.54182 94.2415 7.99204C94.6228 7.42812 95.1737 6.98404 95.8941 6.6598C96.6285 6.33556 97.497 6.17342 98.4996 6.17342C99.9825 6.17342 101.148 6.53996 101.995 7.27305C102.857 8.00612 103.351 8.97886 103.478 10.1913H100.131C100.074 9.78244 99.8907 9.45817 99.58 9.21852C99.2834 8.97886 98.8881 8.85902 98.3937 8.85902C97.9702 8.85902 97.6452 8.94361 97.4192 9.11278C97.1933 9.26788 97.0804 9.48638 97.0804 9.76833C97.0804 10.1067 97.2567 10.3604 97.6099 10.5296C97.9771 10.6988 98.5421 10.868 99.3047 11.0371C100.18 11.2627 100.894 11.4883 101.444 11.7138C101.995 11.9253 102.475 12.2777 102.885 12.7711C103.309 13.2505 103.527 13.8989 103.542 14.7166C103.542 15.4074 103.344 16.0277 102.948 16.5775C102.567 17.1132 102.009 17.5361 101.275 17.8463C100.554 18.1564 99.7144 18.3115 98.754 18.3115Z" fill="#FDFDFD"/>
<path id="Vector_5" d="M112.346 15.0761V18.1423H110.503C109.19 18.1423 108.166 17.8251 107.431 17.1907C106.697 16.5422 106.33 15.492 106.33 14.0399V9.34538H104.889V6.34258H106.33V3.46666H109.952V6.34258H112.325V9.34538H109.952V14.0822C109.952 14.4346 110.037 14.6884 110.207 14.8435C110.376 14.9986 110.659 15.0761 111.054 15.0761H112.346Z" fill="#FDFDFD"/>
<path id="Vector_6" d="M113.644 12.2213C113.644 11.0089 113.87 9.94454 114.322 9.0282C114.788 8.11185 115.416 7.40697 116.207 6.91356C116.998 6.42014 117.881 6.17342 118.855 6.17342C119.689 6.17342 120.416 6.3426 121.037 6.68094C121.673 7.01929 122.16 7.46337 122.499 8.01318V6.3426H126.122V18.1423H122.499V16.4718C122.146 17.0216 121.652 17.4657 121.016 17.804C120.395 18.1423 119.667 18.3115 118.834 18.3115C117.874 18.3115 116.998 18.0648 116.207 17.5714C115.416 17.0639 114.788 16.3519 114.322 15.4356C113.87 14.5052 113.644 13.4337 113.644 12.2213ZM122.499 12.2425C122.499 11.3402 122.245 10.6283 121.736 10.1067C121.242 9.58505 120.635 9.32425 119.914 9.32425C119.194 9.32425 118.58 9.58505 118.072 10.1067C117.577 10.6142 117.33 11.3191 117.33 12.2213C117.33 13.1236 117.577 13.8425 118.072 14.3783C118.58 14.8999 119.194 15.1607 119.914 15.1607C120.635 15.1607 121.242 14.8999 121.736 14.3783C122.245 13.8567 122.499 13.1447 122.499 12.2425Z" fill="#FDFDFD"/>
<path id="Vector_7" d="M54.6008 30.0989C54.9396 29.5419 55.4266 29.092 56.062 28.7493C56.6971 28.4064 57.4241 28.2349 58.2429 28.2349C59.2171 28.2349 60.0995 28.4851 60.8899 28.9848C61.6806 29.4848 62.3017 30.1989 62.7533 31.1275C63.2193 32.056 63.4522 33.1344 63.4522 34.3627C63.4522 35.5912 63.2193 36.6768 62.7533 37.6195C62.3017 38.548 61.6806 39.2693 60.8899 39.7835C60.0995 40.2835 59.2171 40.5333 58.2429 40.5333C57.41 40.5333 56.683 40.3691 56.062 40.0405C55.4407 39.6979 54.9537 39.2477 54.6008 38.6907V40.3619H50.9797V24.507H54.6008V30.0989ZM59.7676 34.3627C59.7676 33.4485 59.5135 32.7344 59.0053 32.2203C58.5111 31.6917 57.897 31.4275 57.1631 31.4275C56.443 31.4275 55.8288 31.6917 55.3206 32.2203C54.8265 32.7488 54.5796 33.4701 54.5796 34.3843C54.5796 35.2984 54.8265 36.0197 55.3206 36.5483C55.8288 37.0765 56.443 37.3408 57.1631 37.3408C57.8829 37.3408 58.4971 37.0765 59.0053 36.5483C59.5135 36.0053 59.7676 35.2768 59.7676 34.3627Z" fill="#FDFDFD"/>
<path id="Vector_8" d="M68.9728 30.3989C69.3963 29.7419 69.9258 29.2277 70.5612 28.8563C71.1963 28.4707 71.9023 28.2779 72.6787 28.2779V32.156H71.6835C70.78 32.156 70.1024 32.356 69.6507 32.7557C69.1988 33.1416 68.9728 33.8272 68.9728 34.8128V40.3619H65.352V28.4064H68.9728V30.3989Z" fill="#FDFDFD"/>
<path id="Vector_9" d="M73.6895 34.3627C73.6895 33.1344 73.9155 32.056 74.3671 31.1275C74.8331 30.1989 75.4613 29.4848 76.2518 28.9848C77.0422 28.4851 77.9245 28.2349 78.8987 28.2349C79.7317 28.2349 80.4587 28.4064 81.08 28.7493C81.7151 29.092 82.2021 29.5419 82.5409 30.0989V28.4064H86.162V40.3619H82.5409V38.6693C82.188 39.2264 81.6939 39.6763 81.0587 40.0192C80.4374 40.3619 79.7104 40.5333 78.8775 40.5333C77.9176 40.5333 77.0422 40.2835 76.2518 39.7835C75.4613 39.2694 74.8331 38.548 74.3671 37.6195C73.9155 36.6768 73.6895 35.5912 73.6895 34.3627ZM82.5409 34.3843C82.5409 33.4701 82.2868 32.7488 81.7786 32.2203C81.2847 31.6917 80.6774 31.4275 79.9576 31.4275C79.2375 31.4275 78.6234 31.6917 78.1152 32.2203C77.6211 32.7344 77.3741 33.4485 77.3741 34.3627C77.3741 35.2768 77.6211 36.0053 78.1152 36.5483C78.6234 37.0765 79.2375 37.3408 79.9576 37.3408C80.6774 37.3408 81.2847 37.0765 81.7786 36.5483C82.2868 36.0197 82.5409 35.2984 82.5409 34.3843Z" fill="#FDFDFD"/>
<path id="Vector_10" d="M93.5886 40.5333C92.5581 40.5333 91.6405 40.3547 90.8357 39.9976C90.0312 39.6405 89.3958 39.1549 88.9301 38.5408C88.4641 37.9123 88.2028 37.2123 88.1465 36.4411H91.7252C91.7674 36.8552 91.958 37.1909 92.2968 37.448C92.6356 37.7051 93.0522 37.8336 93.5464 37.8336C93.998 37.8336 94.344 37.748 94.584 37.5765C94.8381 37.3909 94.965 37.1552 94.965 36.8696C94.965 36.5267 94.7885 36.2768 94.4356 36.1198C94.0827 35.9483 93.5111 35.7627 92.7203 35.5627C91.8733 35.3627 91.1676 35.1555 90.6028 34.9413C90.0381 34.7128 89.5511 34.3627 89.1417 33.8915C88.7323 33.4059 88.5275 32.7557 88.5275 31.9416C88.5275 31.256 88.7113 30.6347 89.0782 30.0776C89.4592 29.5064 90.0099 29.0563 90.73 28.7277C91.4639 28.3992 92.3322 28.2349 93.3345 28.2349C94.8169 28.2349 95.9815 28.6064 96.8285 29.3491C97.6898 30.092 98.1837 31.0776 98.3109 32.3059H94.965C94.9085 31.8917 94.725 31.5632 94.4146 31.3203C94.118 31.0776 93.7227 30.956 93.2286 30.956C92.8051 30.956 92.4803 31.0419 92.2546 31.2131C92.0287 31.3704 91.9158 31.5917 91.9158 31.8773C91.9158 32.2203 92.0921 32.4773 92.4453 32.6488C92.8122 32.82 93.377 32.9915 94.1393 33.1629C95.0144 33.3915 95.7273 33.62 96.278 33.8485C96.8285 34.0627 97.3085 34.42 97.7179 34.9197C98.1414 35.4053 98.3602 36.0624 98.3743 36.8909C98.3743 37.5909 98.1768 38.2195 97.7814 38.7765C97.4004 39.3192 96.8425 39.7477 96.1086 40.0619C95.3885 40.3763 94.5487 40.5333 93.5886 40.5333Z" fill="#FDFDFD"/>
<path id="Vector_11" d="M102.411 27.1637C101.776 27.1637 101.253 26.9781 100.844 26.6067C100.448 26.221 100.251 25.7497 100.251 25.1926C100.251 24.6212 100.448 24.1499 100.844 23.7785C101.253 23.3928 101.776 23.2 102.411 23.2C103.032 23.2 103.54 23.3928 103.936 23.7785C104.345 24.1499 104.549 24.6212 104.549 25.1926C104.549 25.7497 104.345 26.221 103.936 26.6067C103.54 26.9781 103.032 27.1637 102.411 27.1637ZM104.211 28.4064V40.3619H100.59V28.4064H104.211Z" fill="#FDFDFD"/>
<path id="Vector_12" d="M110.456 24.507V40.3619H106.835V24.507H110.456Z" fill="#FDFDFD"/>
<g id="Mask group">
<mask id="mask0_1_588" style="mask-type:alpha" maskUnits="userSpaceOnUse" x="0" y="0" width="45" height="44">
<g id="Group">
<path id="Vector_13" d="M36.1106 0H7.96557C3.56631 0 0 3.58172 0 8V36C0 40.4183 3.56631 44 7.96557 44H36.1106C40.5099 44 44.0762 40.4183 44.0762 36V8C44.0762 3.58172 40.5099 0 36.1106 0Z" fill="#009B3A"/>
</g>
</mask>
<g mask="url(#mask0_1_588)">
<g id="Group_2">
<path id="Vector_14" d="M35.8451 0H7.96557C3.56631 0 0 3.58172 0 8V36C0 40.4183 3.56631 44 7.96557 44H35.8451C40.2443 44 43.8106 40.4183 43.8106 36V8C43.8106 3.58172 40.2443 0 35.8451 0Z" fill="#0075FF"/>
<path id="Vector_15" d="M10.2225 21.6C16.4548 21.6 21.507 16.5259 21.507 10.2667C21.507 4.00744 16.4548 -1.06667 10.2225 -1.06667C3.9902 -1.06667 -1.06207 4.00744 -1.06207 10.2667C-1.06207 16.5259 3.9902 21.6 10.2225 21.6Z" fill="#FEDF00"/>
<path id="Vector_16" d="M5.97418 12.5333C9.27363 12.5333 11.9484 9.84704 11.9484 6.53333C11.9484 3.21962 9.27363 0.533333 5.97418 0.533333C2.67473 0.533333 0 3.21962 0 6.53333C0 9.84704 2.67473 12.5333 5.97418 12.5333Z" fill="#002776"/>
</g>
</g>
</g>
</g>
</svg>
